<svg width="302" height="183" viewBox="0 0 302 183" fill="none" xmlns="http://www.w3.org/2000/svg">
<rect width="302" height="183" rx="18" fill="url(#paint0_linear_63_142)"/>
<path fill-rule="evenodd" clip-rule="evenodd" d="M225.78 143.51C224.535 143.603 218.106 143.983 203.764 143.983C192.358 143.983 184.259 143.644 181.418 143.51C137.335 141.588 104.432 133.98 104.432 124.871C104.432 115.761 137.335 108.164 181.418 106.21V135.933C184.3 136.139 192.555 136.622 203.961 136.622C217.65 136.622 224.504 136.057 225.738 135.943V106.231C269.727 108.174 302.558 115.782 302.558 124.871C302.558 133.959 269.737 141.567 225.738 143.5L225.78 143.51ZM225.78 103.157V76.5593H287.169V36H120.028V76.5593H181.407V103.146C131.518 105.419 94 115.217 94 126.958C94 138.699 131.518 148.487 181.407 150.769V236H225.769V150.738C275.544 148.466 313 138.678 313 126.947C313 115.217 275.575 105.429 225.769 103.146L225.78 103.157Z" fill="url(#paint1_linear_63_142)" fill-opacity="0.1"/>
<path fill-rule="evenodd" clip-rule="evenodd" d="M248.944 127.854C248.472 127.889 246.036 128.034 240.6 128.034C236.277 128.034 233.208 127.905 232.131 127.854C215.424 127.123 202.954 124.232 202.954 120.771C202.954 117.309 215.424 114.422 232.131 113.68V124.975C233.223 125.053 236.352 125.236 240.675 125.236C245.863 125.236 248.46 125.021 248.928 124.979V113.688C265.6 114.426 278.042 117.317 278.042 120.771C278.042 124.224 265.604 127.116 248.928 127.85L248.944 127.854ZM248.944 112.52V102.413H272.21V87H208.865V102.413H232.127V112.516C213.219 113.379 199 117.102 199 121.564C199 126.026 213.219 129.745 232.127 130.612V163H248.94V130.6C267.804 129.737 282 126.018 282 121.56C282 117.102 267.816 113.383 248.94 112.516L248.944 112.52Z" fill="white"/>
<defs>
<linearGradient id="paint0_linear_63_142" x1="-52" y1="-38" x2="302" y2="183" gradientUnits="userSpaceOnUse">
<stop stop-color="#2FC897"/>
<stop offset="1" stop-color="#1B976F"/>
</linearGradient>
<linearGradient id="paint1_linear_63_142" x1="284.5" y1="40.5" x2="75.5" y2="205.5" gradientUnits="userSpaceOnUse">
<stop stop-color="white"/>
<stop offset="1" stop-color="white" stop-opacity="0"/>
</linearGradient>
</defs>
</svg>
