<svg width="20" height="20" viewBox="0 0 20 20" fill="none" xmlns="http://www.w3.org/2000/svg">
<path fill-rule="evenodd" clip-rule="evenodd" d="M1.66663 6.66671C1.66663 4.82576 3.15901 3.33337 4.99996 3.33337H15C16.8409 3.33337 18.3333 4.82576 18.3333 6.66671V7.08337C18.3333 7.31349 18.1467 7.50004 17.9166 7.50004L2.08329 7.50004C1.85317 7.50004 1.66663 7.31349 1.66663 7.08337V6.66671ZM2.08329 9.16671C1.85317 9.16671 1.66663 9.35326 1.66663 9.58337V13.3334C1.66663 15.1743 3.15901 16.6667 4.99996 16.6667H15C16.8409 16.6667 18.3333 15.1743 18.3333 13.3334V9.58337C18.3333 9.35325 18.1467 9.16671 17.9166 9.16671L2.08329 9.16671ZM10.8333 12.5C10.8333 12.0398 11.2064 11.6667 11.6666 11.6667H14.1666C14.6269 11.6667 15 12.0398 15 12.5C15 12.9603 14.6269 13.3334 14.1666 13.3334H11.6666C11.2064 13.3334 10.8333 12.9603 10.8333 12.5Z" fill="#6B4CD8"/>
</svg>
