<svg width="14" height="14" viewBox="0 0 14 14" fill="none" xmlns="http://www.w3.org/2000/svg">
<path fill-rule="evenodd" clip-rule="evenodd" d="M5 7.66667C5 6.19391 6.19391 5 7.66667 5H11C12.4728 5 13.6667 6.19391 13.6667 7.66667V11C13.6667 12.4728 12.4728 13.6667 11 13.6667H7.66667C6.19391 13.6667 5 12.4728 5 11V7.66667ZM7.66667 6.33333C6.93029 6.33333 6.33333 6.93029 6.33333 7.66667V11C6.33333 11.7364 6.93029 12.3333 7.66667 12.3333H11C11.7364 12.3333 12.3333 11.7364 12.3333 11V7.66667C12.3333 6.93029 11.7364 6.33333 11 6.33333H7.66667Z" fill="#01DCBA"/>
<path fill-rule="evenodd" clip-rule="evenodd" d="M0.333313 2.99992C0.333313 1.52716 1.52722 0.333252 2.99998 0.333252H6.33331C7.80607 0.333252 8.99998 1.52716 8.99998 2.99992V3.13881C8.99998 3.507 8.7015 3.80547 8.33331 3.80547C7.96512 3.80547 7.66665 3.507 7.66665 3.13881V2.99992C7.66665 2.26354 7.06969 1.66659 6.33331 1.66659H2.99998C2.2636 1.66659 1.66665 2.26354 1.66665 2.99992V6.33325C1.66665 7.06963 2.2636 7.66659 2.99998 7.66659H3.13887C3.50706 7.66659 3.80554 7.96506 3.80554 8.33325C3.80554 8.70144 3.50706 8.99992 3.13887 8.99992H2.99998C1.52722 8.99992 0.333313 7.80601 0.333313 6.33325V2.99992Z" fill="#01DCBA"/>
</svg>
