<svg width="20" height="20" viewBox="0 0 20 20" fill="none" xmlns="http://www.w3.org/2000/svg">
<path fill-rule="evenodd" clip-rule="evenodd" d="M6.16667 2C3.86548 2 2 3.86548 2 6.16667V14.5C2 16.8012 3.86548 18.6667 6.16667 18.6667H14.5C16.8012 18.6667 18.6667 16.8012 18.6667 14.5V6.16667C18.6667 3.86548 16.8012 2 14.5 2H6.16667ZM9.74408 6.41074C10.0695 6.08531 10.5972 6.08531 10.9226 6.41074L14.2559 9.74408C14.4122 9.90036 14.5 10.1123 14.5 10.3333C14.5 10.5543 14.4122 10.7663 14.2559 10.9226L10.9226 14.2559C10.5972 14.5814 10.0695 14.5814 9.74408 14.2559C9.41864 13.9305 9.41864 13.4028 9.74408 13.0774L11.6548 11.1667H7C6.53976 11.1667 6.16667 10.7936 6.16667 10.3333C6.16667 9.8731 6.53976 9.5 7 9.5H11.6548L9.74408 7.58926C9.41864 7.26382 9.41864 6.73618 9.74408 6.41074Z" fill="#6B4CD8"/>
</svg>
