<svg width="20" height="20" viewBox="0 0 20 20" fill="none" xmlns="http://www.w3.org/2000/svg">
<path fill-rule="evenodd" clip-rule="evenodd" d="M6.66671 7.5C4.82576 7.5 3.33337 8.99238 3.33337 10.8333V15C3.33337 16.8409 4.82576 18.3333 6.66671 18.3333H13.3334C15.1743 18.3333 16.6667 16.8409 16.6667 15V10.8333C16.6667 8.99238 15.1743 7.5 13.3334 7.5H6.66671Z" fill="#6B4CD8"/>
<path fill-rule="evenodd" clip-rule="evenodd" d="M6.66663 4.99996C6.66663 3.15901 8.15901 1.66663 9.99996 1.66663C11.8409 1.66663 13.3333 3.15901 13.3333 4.99996V5.41663C13.3333 5.87686 12.9602 6.24996 12.5 6.24996C12.0397 6.24996 11.6666 5.87686 11.6666 5.41663V4.99996C11.6666 4.07948 10.9204 3.33329 9.99996 3.33329C9.07948 3.33329 8.33329 4.07948 8.33329 4.99996V8.33329C8.33329 8.79353 7.9602 9.16663 7.49996 9.16663C7.03972 9.16663 6.66663 8.79353 6.66663 8.33329V4.99996Z" fill="#6B4CD8"/>
</svg>
