<svg width="18" height="20" viewBox="0 0 18 20" fill="none" xmlns="http://www.w3.org/2000/svg">
<path fill-rule="evenodd" clip-rule="evenodd" d="M4 5C4 2.23858 6.23858 0 9 0C11.7614 0 14 2.23858 14 5C14 7.76142 11.7614 10 9 10C6.23858 10 4 7.76142 4 5ZM1.80113 12.9004C2.73821 11.7585 4.33723 11 5.99998 11H12C13.6627 11 15.2617 11.7585 16.1988 12.9004C16.6744 13.48 17.0088 14.1971 17.0379 14.9919C17.0676 15.8036 16.7746 16.5958 16.1704 17.2871C14.6978 18.9716 12.3467 20 8.99998 20C5.65325 20 3.30212 18.9716 1.82956 17.2871C1.22533 16.5958 0.932347 15.8036 0.962077 14.9919C0.991192 14.1971 1.32553 13.48 1.80113 12.9004Z" fill="url(#paint0_linear_47_139)"/>
<defs>
<linearGradient id="paint0_linear_47_139" x1="1" y1="-4.47482e-08" x2="17" y2="20" gradientUnits="userSpaceOnUse">
<stop stop-color="#01DCBA"/>
<stop offset="1" stop-color="#7F30CB"/>
</linearGradient>
</defs>
</svg>
