<svg width="20" height="20" viewBox="0 0 20 20" fill="none" xmlns="http://www.w3.org/2000/svg">
<path fill-rule="evenodd" clip-rule="evenodd" d="M10 1.66663C7.69885 1.66663 5.83337 3.53211 5.83337 5.83329C5.83337 8.13448 7.69885 9.99996 10 9.99996C12.3012 9.99996 14.1667 8.13448 14.1667 5.83329C14.1667 3.53211 12.3012 1.66663 10 1.66663Z" fill="#6B4CD8"/>
<path fill-rule="evenodd" clip-rule="evenodd" d="M7.50001 10.8334C6.11439 10.8334 4.78187 11.4655 4.00097 12.4171C3.60464 12.9 3.32602 13.4976 3.30176 14.16C3.27699 14.8364 3.52114 15.4966 4.02466 16.0726C5.2518 17.4764 7.21107 18.3334 10 18.3334C12.789 18.3334 14.7482 17.4764 15.9754 16.0726C16.4789 15.4966 16.723 14.8364 16.6983 14.16C16.674 13.4976 16.3954 12.9 15.9991 12.4171C15.2182 11.4655 13.8856 10.8334 12.5 10.8334H7.50001Z" fill="#6B4CD8"/>
</svg>
